# xmcd
#
# Track frame offsets:
#	150
#	16501
#	35740
#	51883
#	72708
#	95500
#	103070
#	122006
#	137013
#	154850
#	171642
#	186543
#	216773
#
# Disc length: 3312 seconds
# Revision: 0
# Processed by: cddbd v1.5.2PL0 Copyright (c) Steve Scherf et al.
# Submitted via: dBpowerAMP V12.0
#
DISCID=c30cee0d
DTITLE=In Flames - Colony (Reloaded)
DYEAR=1999
DGENRE=Metal
TTITLE0=Embody the Invisible
TTITLE1=Ordinary Story
TTITLE2=Scorn
TTITLE3=Colony
TTITLE4=Zombie Inc.
TTITLE5=Pallar Anders Visa
TTITLE6=Coerced Coexistence
TTITLE7=Resin
TTITLE8=Behind Space '99
TTITLE9=Insipid 2000
TTITLE10=The New Word
TTITLE11=Man Made God
TTITLE12=DATA
EXTD=
EXTT0=
EXTT1=
EXTT2=
EXTT3=
EXTT4=
EXTT5=
EXTT6=
EXTT7=
EXTT8=
EXTT9=
EXTT10=
EXTT11=
EXTT12=
PLAYORDER=
